<?xml version="1.0" standalone="no"?>
<!DOCTYPE svg PUBLIC "-//W3C//DTD SVG 20010904//EN"
 "http://www.w3.org/TR/2001/REC-SVG-20010904/DTD/svg10.dtd">
<svg version="1.0" xmlns="http://www.w3.org/2000/svg"
 width="390.000000pt" height="129.000000pt" viewBox="0 0 390.000000 129.000000"
 preserveAspectRatio="xMidYMid meet">

<g transform="translate(0.000000,129.000000) scale(0.100000,-0.100000)"
fill="#000000" stroke="none">
<path d="M0 698 c0 -460 3 -589 12 -580 43 43 90 -37 58 -99 -8 -15 -7 -19 5
-19 12 0 15 13 15 66 l0 65 33 -3 c29 -3 32 -6 34 -38 4 -80 7 -90 28 -89 11
0 15 3 8 6 -18 7 -26 64 -14 96 9 23 16 28 38 25 18 -2 29 -10 32 -23 3 -19 2
-19 -16 -3 -25 23 -43 7 -43 -39 0 -36 23 -54 43 -34 8 8 6 15 -9 26 -19 14
-18 14 4 15 19 0 22 -5 23 -37 0 -35 2 -33 19 26 28 95 33 95 61 -1 l18 -63 0
68 c1 37 5 67 10 67 5 0 18 -21 28 -48 l18 -47 6 50 c6 49 6 49 7 -17 2 -54 5
-68 17 -68 12 0 13 4 5 19 -32 62 15 142 58 99 16 -16 16 -90 0 -106 -9 -9 -4
-12 23 -12 l34 0 -3 65 -4 65 29 0 c16 0 34 -5 41 -12 17 -17 15 -84 -4 -102
-14 -15 -14 -16 5 -16 19 0 21 6 21 65 l0 65 36 0 c21 0 33 -4 29 -10 -3 -5
-15 -10 -26 -10 -10 0 -19 -7 -19 -15 0 -8 9 -15 20 -15 11 0 20 -4 20 -10 0
-5 -9 -10 -20 -10 -13 0 -20 -7 -20 -20 0 -15 7 -20 26 -20 14 0 23 -4 19 -10
-4 -6 5 -10 19 -10 25 0 26 2 26 65 0 63 1 65 25 65 14 0 25 -4 25 -10 0 -5
-9 -10 -20 -10 -11 0 -20 -7 -20 -15 0 -8 9 -15 20 -15 11 0 20 -4 20 -10 0
-5 -9 -10 -20 -10 -16 0 -20 -7 -20 -30 0 -25 4 -30 25 -30 24 0 25 2 25 65 0
37 4 65 10 65 6 0 10 -21 10 -46 0 -27 4 -43 10 -39 5 3 10 -1 10 -9 0 -9 9
-16 20 -16 29 0 25 28 -5 42 -36 16 -32 63 5 63 17 0 26 -6 28 -20 4 -20 3
-20 -11 -1 -7 10 -19 16 -25 12 -19 -12 -14 -25 18 -41 31 -16 39 -42 18 -63
-9 -9 -6 -12 16 -12 24 0 27 2 16 15 -14 16 -17 85 -6 104 11 16 56 13 63 -4
8 -23 -7 -33 -19 -12 -21 39 -50 -21 -32 -67 8 -20 34 -21 34 -1 0 8 5 15 10
15 14 0 13 -23 -2 -38 -9 -9 -8 -12 7 -12 10 0 16 2 13 5 -9 9 26 118 39 122
6 2 17 -22 26 -54 l15 -58 1 58 c1 31 6 57 11 57 6 0 10 -25 10 -55 0 -52 1
-55 25 -55 24 0 25 3 25 55 0 30 5 55 10 55 6 0 10 -26 10 -57 l1 -58 24 45
c22 43 22 45 4 48 -30 5 -22 22 11 22 35 0 37 -8 10 -60 -25 -49 -25 -52 2
-48 17 2 25 14 34 51 7 27 15 52 19 55 10 10 23 -18 36 -75 8 -35 17 -53 27
-53 11 0 12 3 3 14 -7 8 -11 36 -9 63 3 46 4 48 33 48 22 0 31 -5 34 -20 3
-19 2 -19 -16 -3 -23 21 -43 8 -43 -28 0 -52 22 -69 46 -36 11 14 13 15 14 1
0 -8 -5 -20 -12 -27 -9 -9 -8 -12 5 -12 14 0 17 10 17 65 0 37 4 65 10 65 6 0
10 -28 10 -65 0 -55 3 -65 17 -65 13 0 14 3 5 12 -7 7 -12 30 -12 53 0 44 13
65 42 65 33 0 50 -68 28 -111 -8 -15 -7 -19 5 -19 12 0 15 13 15 65 0 36 4 65
9 65 5 0 18 -21 28 -48 l18 -47 6 50 c6 49 6 49 7 -17 2 -68 2 -68 31 -68 25
0 28 3 25 28 -2 15 -1 19 2 10 7 -22 44 -24 44 -3 0 9 -11 21 -25 27 -36 16
-32 63 5 63 17 0 26 -6 28 -20 4 -20 3 -20 -11 -1 -7 10 -19 16 -25 12 -19
-12 -14 -25 18 -41 31 -16 39 -42 18 -63 -9 -9 -5 -12 18 -11 16 0 23 3 17 6
-9 3 -12 25 -11 66 l2 62 3 -53 c3 -35 9 -55 19 -59 22 -8 28 2 35 60 l6 52 2
-62 c1 -41 -3 -63 -11 -66 -7 -3 -4 -6 7 -6 18 -1 20 4 17 64 l-4 65 31 0 c18
0 34 -7 40 -17 10 -17 10 -17 11 -1 0 15 10 17 64 17 70 -1 86 -10 84 -50 -3
-42 2 -79 10 -79 4 0 5 29 4 65 -3 42 0 65 7 65 7 0 11 -25 11 -65 0 -55 3
-65 17 -65 13 0 14 3 5 12 -13 13 -16 75 -6 102 9 22 51 20 64 -3 13 -25 13
-67 0 -92 -8 -15 -7 -19 5 -19 12 0 15 13 15 66 l0 65 33 -3 c34 -3 33 -1 36
-95 1 -28 5 -33 26 -33 24 0 25 2 25 65 0 61 1 65 23 65 12 0 27 -4 34 -8 21
-13 26 -59 10 -92 -15 -28 -14 -30 4 -30 17 0 19 8 19 65 l0 65 30 0 c17 0 30
-4 30 -10 0 -5 -11 -10 -25 -10 -16 0 -25 -6 -25 -15 0 -8 9 -15 20 -15 11 0
20 -4 20 -10 0 -5 -9 -10 -20 -10 -13 0 -20 -7 -20 -20 0 -14 7 -20 24 -20 13
0 27 -6 29 -12 3 -7 7 19 8 57 l3 70 3 -57 c4 -54 6 -58 28 -58 14 0 25 -4 25
-10 0 -5 9 -10 20 -10 18 0 20 7 20 65 l0 65 30 0 c17 0 30 -4 30 -10 0 -5 -9
-10 -20 -10 -11 0 -20 -7 -20 -15 0 -8 9 -15 20 -15 11 0 20 -4 20 -10 0 -5
-9 -10 -20 -10 -13 0 -20 -7 -20 -20 0 -13 7 -20 20 -20 11 0 20 -4 20 -10 0
-5 8 -10 17 -10 13 0 14 3 5 12 -7 7 -12 19 -12 28 1 12 3 11 15 -4 8 -11 21
-16 30 -13 22 9 18 26 -9 37 -30 11 -39 25 -31 49 5 16 16 19 75 20 39 0 70
-4 70 -9 0 -6 -7 -10 -15 -10 -12 0 -15 -13 -15 -55 0 -77 22 -74 41 7 8 34
19 63 25 65 6 2 17 -18 24 -44 18 -67 25 -70 25 -10 0 47 2 52 23 55 35 5 52
-15 52 -64 0 -30 -5 -46 -17 -53 -15 -9 -12 -10 15 -11 30 0 32 2 22 20 -28
53 7 129 48 104 21 -13 29 -89 11 -110 -9 -12 -6 -14 22 -14 l34 0 -3 65 -4
65 29 0 c16 0 34 -5 41 -12 17 -17 15 -84 -4 -102 -14 -15 -14 -16 5 -16 19 0
21 6 21 65 l0 65 30 0 c17 0 30 -4 30 -10 0 -5 -9 -10 -20 -10 -11 0 -20 -7
-20 -15 0 -8 9 -15 20 -15 11 0 20 -4 20 -10 0 -5 -9 -10 -20 -10 -13 0 -20
-7 -20 -20 0 -13 7 -20 20 -20 11 0 20 -4 20 -10 0 -5 18 -10 40 -10 39 0 40
1 34 28 -4 15 -11 37 -15 50 -12 31 -11 55 1 47 5 -3 12 -21 16 -40 8 -45 18
-44 30 3 8 35 12 37 52 40 25 2 42 -1 42 -7 0 -6 -11 -11 -25 -11 -16 0 -25
-6 -25 -15 0 -8 9 -15 20 -15 11 0 20 -4 20 -10 0 -5 -9 -10 -20 -10 -13 0
-20 -7 -20 -20 0 -15 7 -20 26 -20 14 0 23 -4 19 -10 -3 -5 -1 -10 4 -10 7 0
11 26 11 65 0 61 1 65 23 65 33 0 51 -15 45 -38 -3 -11 -3 -36 1 -54 8 -32 8
-32 21 25 21 91 38 88 59 -9 7 -30 16 -54 20 -54 5 0 3 18 -2 39 -14 52 2 91
37 91 13 0 27 -7 30 -16 9 -24 -2 -31 -17 -10 -12 16 -14 16 -26 3 -18 -22
-10 -81 12 -85 10 -2 17 3 17 12 0 9 5 16 10 16 14 0 13 -23 -2 -38 -9 -9 -8
-12 5 -12 14 0 17 11 17 66 l0 65 33 -3 c29 -3 32 -6 33 -39 2 -59 13 -89 32
-88 10 0 12 3 5 6 -9 3 -12 25 -11 66 l2 62 3 -53 c3 -35 9 -55 19 -59 22 -8
28 2 35 60 l6 52 2 -56 c0 -31 -4 -60 -11 -67 -9 -9 -8 -12 5 -12 9 0 17 7 17
15 0 9 9 34 20 55 l20 40 -20 0 c-11 0 -20 5 -20 10 0 6 14 10 30 10 l30 0 0
580 0 580 -1812 0 c-1374 -1 -1808 -3 -1793 -12 31 -18 51 -41 64 -75 7 -17
21 -39 32 -49 21 -19 25 -44 9 -60 -14 -14 24 -119 56 -152 39 -42 81 -114 89
-152 4 -19 18 -46 31 -59 13 -13 24 -30 24 -37 0 -18 40 -44 69 -44 39 0 110
-41 132 -76 18 -29 23 -32 54 -27 33 5 35 4 41 -26 4 -18 20 -44 35 -59 39
-37 40 -82 2 -99 -27 -11 -113 -11 -160 0 -23 6 -63 41 -63 56 0 5 -7 14 -15
21 -12 10 -19 10 -27 2 -32 -32 -81 9 -71 58 4 23 1 28 -20 34 -15 3 -32 20
-44 43 -21 40 -43 55 -43 29 0 -18 -25 -22 -35 -5 -4 6 -14 8 -22 5 -32 -13
-81 62 -53 79 5 3 10 15 10 26 0 11 7 19 18 19 13 1 11 4 -7 14 -37 20 -41 45
-16 93 19 36 21 43 8 48 -9 3 -21 1 -27 -4 -6 -5 -20 -5 -32 -1 -16 7 -20 15
-16 39 2 17 9 31 15 31 8 0 7 4 -1 12 -8 8 -15 8 -26 -1 -8 -7 -19 -10 -24 -7
-5 3 -22 -4 -37 -16 -27 -21 -28 -21 -41 -3 -22 29 1 95 32 95 22 0 16 24 -8
35 -14 6 -22 17 -20 27 2 10 -2 27 -8 39 -9 15 -8 24 0 34 7 8 10 20 8 27 -2
6 4 20 14 30 22 22 16 38 -14 38 -14 0 -18 5 -14 15 4 13 -10 15 -94 15 l-100
0 0 -592z m1447 567 c66 -20 135 -93 152 -161 23 -91 33 -271 22 -400 -22
-248 -87 -324 -278 -324 -133 1 -212 48 -248 150 -36 103 -44 394 -14 544 21
101 86 176 172 196 54 13 141 11 194 -5z m2119 -13 c75 -38 110 -97 121 -202
l6 -60 -82 0 -81 0 0 35 c0 60 -24 102 -63 113 -70 19 -117 -10 -117 -73 0
-44 21 -68 108 -127 208 -140 242 -184 242 -317 0 -88 -23 -146 -76 -190 -46
-37 -95 -51 -180 -51 -92 0 -137 14 -184 56 -49 44 -71 102 -73 190 l-2 69 83
3 82 3 0 -54 c0 -65 16 -114 40 -127 38 -20 90 -12 122 20 27 28 30 36 25 76
-6 56 -24 76 -147 164 -173 124 -195 154 -195 270 0 51 6 85 17 106 26 49 79
94 128 109 61 20 175 13 226 -13z m-1454 -3 c103 -23 155 -108 146 -241 -6
-78 -30 -126 -75 -149 l-32 -16 34 -16 c54 -26 65 -60 74 -220 6 -101 13 -151
25 -175 l17 -32 -95 0 c-80 0 -95 3 -101 18 -3 9 -9 79 -12 156 -6 124 -8 141
-29 165 -20 23 -30 26 -103 29 l-81 4 0 -186 0 -186 -80 0 -80 0 0 423 c0 233
3 427 7 430 11 12 329 8 385 -4z m728 -64 l0 -75 -145 0 -146 0 3 -97 3 -98
138 -3 138 -3 -3 -67 -3 -67 -137 -3 -138 -3 0 -184 0 -185 -80 0 -80 0 0 430
0 430 225 0 225 0 0 -75z m260 -355 l0 -430 -80 0 -80 0 0 430 0 430 80 0 80
0 0 -430z m-3050 -680 c0 -5 -5 -10 -11 -10 -5 0 -7 5 -4 10 3 6 8 10 11 10 2
0 4 -4 4 -10z"/>
<path d="M1281 1124 c-25 -23 -33 -41 -41 -89 -6 -33 -10 -75 -10 -92 0 -30 3
-33 29 -33 34 0 71 -39 71 -76 0 -54 -47 -102 -86 -87 -15 6 -16 -1 -10 -72
12 -131 36 -165 116 -165 53 0 86 34 97 98 4 26 8 133 7 237 0 249 -14 290
-102 302 -33 4 -44 1 -71 -23z"/>
<path d="M1880 1010 l0 -120 43 0 c72 1 130 17 149 40 13 16 18 40 18 87 0 55
-4 67 -25 88 -22 22 -32 25 -105 25 l-80 0 0 -120z"/>
<path d="M27 114 c-4 -4 -7 -27 -7 -51 0 -37 3 -43 21 -43 18 0 20 5 17 47 -3
44 -15 62 -31 47z"/>
<path d="M457 113 c-4 -3 -7 -26 -7 -50 0 -36 3 -43 19 -43 23 0 35 39 21 74
-9 26 -21 32 -33 19z"/>
<path d="M1467 114 c-4 -4 -7 -27 -7 -51 0 -37 3 -43 21 -43 18 0 20 5 17 47
-3 44 -15 62 -31 47z"/>
<path d="M1933 113 c-28 -5 -30 -33 -3 -33 11 0 20 -4 20 -10 0 -5 -9 -10 -20
-10 -13 0 -20 -7 -20 -20 0 -15 7 -20 25 -20 23 0 25 3 25 50 0 28 -1 49 -2
49 -2 -1 -13 -4 -25 -6z"/>
<path d="M2100 95 c-14 -36 -3 -75 22 -75 17 0 19 6 16 47 -3 53 -23 68 -38
28z"/>
<path d="M2647 113 c-14 -13 -6 -30 18 -41 27 -12 35 -56 13 -65 -7 -3 2 -6
20 -6 l32 -1 0 54 c0 45 -3 54 -20 59 -14 3 -20 0 -20 -10 0 -14 -2 -14 -18 0
-10 10 -22 14 -25 10z"/>
<path d="M2967 114 c-4 -4 -7 -27 -7 -51 0 -37 3 -43 21 -43 18 0 20 5 17 47
-3 44 -15 62 -31 47z"/>
<path d="M100 96 c0 -8 5 -18 10 -21 13 -8 42 14 34 26 -9 15 -44 10 -44 -5z"/>
<path d="M570 64 c0 -38 3 -45 18 -42 12 2 18 15 20 46 3 37 1 42 -17 42 -18
0 -21 -6 -21 -46z"/>
<path d="M1830 89 c0 -14 5 -19 17 -17 26 5 29 38 4 38 -15 0 -21 -6 -21 -21z"/>
<path d="M1980 89 c0 -14 5 -19 17 -17 26 5 29 38 4 38 -15 0 -21 -6 -21 -21z"/>
<path d="M2180 90 c0 -23 22 -27 39 -7 13 16 5 27 -21 27 -11 0 -18 -7 -18
-20z"/>
<path d="M2300 66 c0 -39 3 -46 20 -46 38 0 41 83 2 88 -20 3 -22 -1 -22 -42z"/>
<path d="M2870 65 c0 -37 3 -45 19 -45 21 0 33 33 25 67 -4 14 -14 23 -25 23
-16 0 -19 -8 -19 -45z"/>
<path d="M3080 64 c0 -38 3 -45 18 -42 12 2 18 15 20 46 3 37 1 42 -17 42 -18
0 -21 -6 -21 -46z"/>
<path d="M3430 89 c0 -14 5 -19 17 -17 26 5 29 38 4 38 -15 0 -21 -6 -21 -21z"/>
<path d="M3690 90 c0 -11 4 -20 9 -20 13 0 32 26 24 33 -13 14 -33 6 -33 -13z"/>
<path d="M360 53 c0 -47 2 -53 21 -53 22 0 21 10 -7 74 l-13 31 -1 -52z"/>
<path d="M1028 82 c-4 -12 -2 -25 4 -28 16 -10 22 4 11 28 l-10 22 -5 -22z"/>
<path d="M2800 78 c0 -16 5 -28 10 -28 13 0 13 20 0 40 -8 12 -10 9 -10 -12z"/>
<path d="M3323 55 c-12 -54 -12 -59 9 -53 9 2 12 17 8 53 l-5 50 -12 -50z"/>
<path d="M3530 78 c0 -16 5 -28 10 -28 13 0 13 20 0 40 -8 12 -10 9 -10 -12z"/>
<path d="M3877 65 c-21 -45 -21 -45 3 -45 17 0 20 7 20 40 0 22 -1 40 -3 40
-2 0 -11 -16 -20 -35z"/>
<path d="M290 70 c0 -11 5 -20 10 -20 6 0 10 9 10 20 0 11 -4 20 -10 20 -5 0
-10 -9 -10 -20z"/>
<path d="M1270 70 c0 -11 5 -20 10 -20 6 0 10 9 10 20 0 11 -4 20 -10 20 -5 0
-10 -9 -10 -20z"/>
<path d="M1540 47 c0 -44 2 -47 25 -47 l25 0 -21 43 c-29 57 -29 57 -29 4z"/>
<path d="M1881 78 c-1 -10 -12 -20 -26 -24 -18 -4 -25 -13 -25 -30 0 -20 5
-24 33 -24 32 0 33 1 29 38 -4 43 -10 64 -11 40z"/>
<path d="M106 48 c-10 -31 -2 -48 21 -48 23 0 29 14 17 44 -7 19 -33 21 -38 4z"/>
<path d="M1980 31 c0 -26 4 -31 24 -31 22 0 23 3 17 27 -11 41 -41 43 -41 4z"/>
<path d="M2180 30 c0 -26 4 -30 26 -30 20 0 25 4 20 16 -3 9 -6 22 -6 30 0 8
-9 14 -20 14 -16 0 -20 -7 -20 -30z"/>
<path d="M3430 31 c0 -26 4 -31 24 -31 22 0 23 3 17 27 -11 41 -41 43 -41 4z"/>
<path d="M3688 30 c-4 -26 -1 -30 19 -30 23 0 29 14 17 44 -10 26 -31 18 -36
-14z"/>
<path d="M277 20 c-4 -16 0 -20 23 -20 23 0 27 4 23 20 -7 26 -39 26 -46 0z"/>
<path d="M1017 33 c-17 -16 -5 -33 22 -33 24 0 28 3 24 20 -5 19 -33 27 -46
13z"/>
<path d="M1257 20 c-4 -16 0 -20 23 -20 23 0 27 4 23 20 -7 26 -39 26 -46 0z"/>
<path d="M2786 24 c-9 -23 -8 -24 23 -24 24 0 28 3 24 20 -6 24 -38 27 -47 4z"/>
<path d="M3517 20 c-4 -16 0 -20 23 -20 23 0 27 4 23 20 -7 26 -39 26 -46 0z"/>
<path d="M826 15 c-3 -9 0 -15 9 -15 9 0 12 6 9 15 -4 8 -7 15 -9 15 -2 0 -5
-7 -9 -15z"/>
<path d="M0 10 c0 -5 5 -10 11 -10 5 0 7 5 4 10 -3 6 -8 10 -11 10 -2 0 -4 -4
-4 -10z"/>
</g>
</svg>
